<mxfile host="Electron" agent="Mozilla/5.0 (Windows NT 10.0; Win64; x64) AppleWebKit/537.36 (KHTML, like Gecko) draw.io/26.2.15 Chrome/134.0.6998.205 Electron/35.2.1 Safari/537.36" version="26.2.15">
  <diagram name="Page-1" id="1mJDodwC2UQsbR1L6zvY">
    <mxGraphModel dx="786" dy="516" grid="1" gridSize="10" guides="1" tooltips="1" connect="1" arrows="1" fold="1" page="1" pageScale="1" pageWidth="827" pageHeight="1169" math="0" shadow="0">
      <root>
        <mxCell id="0" />
        <mxCell id="1" parent="0" />
        <mxCell id="lgsPyOXCFTLLYFmnP0r0-1" value="" style="rounded=0;whiteSpace=wrap;html=1;fillColor=none;dashed=1;" parent="1" vertex="1">
          <mxGeometry x="120" y="120" width="180" height="360" as="geometry" />
        </mxCell>
        <mxCell id="lgsPyOXCFTLLYFmnP0r0-2" value="&lt;font style=&quot;font-size: 23px;&quot;&gt;Sources&lt;/font&gt;" style="rounded=1;whiteSpace=wrap;html=1;strokeColor=none;" parent="1" vertex="1">
          <mxGeometry x="145" y="100" width="110" height="40" as="geometry" />
        </mxCell>
        <mxCell id="lgsPyOXCFTLLYFmnP0r0-23" style="edgeStyle=orthogonalEdgeStyle;rounded=0;orthogonalLoop=1;jettySize=auto;html=1;entryX=0;entryY=0.5;entryDx=0;entryDy=0;" parent="1" source="lgsPyOXCFTLLYFmnP0r0-3" target="lgsPyOXCFTLLYFmnP0r0-16" edge="1">
          <mxGeometry relative="1" as="geometry" />
        </mxCell>
        <mxCell id="lgsPyOXCFTLLYFmnP0r0-24" style="edgeStyle=orthogonalEdgeStyle;rounded=0;orthogonalLoop=1;jettySize=auto;html=1;" parent="1" source="lgsPyOXCFTLLYFmnP0r0-3" target="lgsPyOXCFTLLYFmnP0r0-17" edge="1">
          <mxGeometry relative="1" as="geometry" />
        </mxCell>
        <mxCell id="lgsPyOXCFTLLYFmnP0r0-25" style="edgeStyle=orthogonalEdgeStyle;rounded=0;orthogonalLoop=1;jettySize=auto;html=1;entryX=0;entryY=0.5;entryDx=0;entryDy=0;" parent="1" source="lgsPyOXCFTLLYFmnP0r0-3" target="lgsPyOXCFTLLYFmnP0r0-18" edge="1">
          <mxGeometry relative="1" as="geometry" />
        </mxCell>
        <mxCell id="lgsPyOXCFTLLYFmnP0r0-3" value="" style="image;aspect=fixed;html=1;points=[];align=center;fontSize=12;image=img/lib/azure2/general/Folder_Blank.svg;" parent="1" vertex="1">
          <mxGeometry x="165.5" y="190" width="69" height="56.00000000000001" as="geometry" />
        </mxCell>
        <mxCell id="lgsPyOXCFTLLYFmnP0r0-26" style="edgeStyle=orthogonalEdgeStyle;rounded=0;orthogonalLoop=1;jettySize=auto;html=1;entryX=0;entryY=0.75;entryDx=0;entryDy=0;" parent="1" source="lgsPyOXCFTLLYFmnP0r0-4" target="lgsPyOXCFTLLYFmnP0r0-19" edge="1">
          <mxGeometry relative="1" as="geometry" />
        </mxCell>
        <mxCell id="lgsPyOXCFTLLYFmnP0r0-27" style="edgeStyle=orthogonalEdgeStyle;rounded=0;orthogonalLoop=1;jettySize=auto;html=1;entryX=0;entryY=0.75;entryDx=0;entryDy=0;" parent="1" source="lgsPyOXCFTLLYFmnP0r0-4" target="lgsPyOXCFTLLYFmnP0r0-20" edge="1">
          <mxGeometry relative="1" as="geometry" />
        </mxCell>
        <mxCell id="lgsPyOXCFTLLYFmnP0r0-28" style="edgeStyle=orthogonalEdgeStyle;rounded=0;orthogonalLoop=1;jettySize=auto;html=1;entryX=0;entryY=0.75;entryDx=0;entryDy=0;" parent="1" source="lgsPyOXCFTLLYFmnP0r0-4" target="lgsPyOXCFTLLYFmnP0r0-22" edge="1">
          <mxGeometry relative="1" as="geometry" />
        </mxCell>
        <mxCell id="lgsPyOXCFTLLYFmnP0r0-4" value="" style="image;aspect=fixed;html=1;points=[];align=center;fontSize=12;image=img/lib/azure2/general/Folder_Blank.svg;" parent="1" vertex="1">
          <mxGeometry x="170" y="350" width="69" height="56.00000000000001" as="geometry" />
        </mxCell>
        <mxCell id="lgsPyOXCFTLLYFmnP0r0-6" value="ERP" style="whiteSpace=wrap;html=1;verticalAlign=top;labelBackgroundColor=default;strokeColor=none;" parent="1" vertex="1">
          <mxGeometry x="170" y="410" width="50" height="20" as="geometry" />
        </mxCell>
        <mxCell id="lgsPyOXCFTLLYFmnP0r0-11" value="CRM" style="whiteSpace=wrap;html=1;verticalAlign=top;labelBackgroundColor=default;strokeColor=none;" parent="1" vertex="1">
          <mxGeometry x="168" y="250" width="64" height="20" as="geometry" />
        </mxCell>
        <mxCell id="lgsPyOXCFTLLYFmnP0r0-14" value="" style="rounded=0;whiteSpace=wrap;html=1;fillStyle=hatch;" parent="1" vertex="1">
          <mxGeometry x="440" y="120" width="160" height="390" as="geometry" />
        </mxCell>
        <mxCell id="lgsPyOXCFTLLYFmnP0r0-15" value="BRONZE LAYER" style="rounded=1;whiteSpace=wrap;html=1;fillColor=#647687;strokeColor=default;fontColor=#ffffff;" parent="1" vertex="1">
          <mxGeometry x="680" y="75" width="160" height="40" as="geometry" />
        </mxCell>
        <mxCell id="GjvaQLcrxtEalhyeeRgq-12" style="edgeStyle=orthogonalEdgeStyle;rounded=0;orthogonalLoop=1;jettySize=auto;html=1;exitX=1;exitY=0.5;exitDx=0;exitDy=0;" parent="1" source="lgsPyOXCFTLLYFmnP0r0-16" target="GjvaQLcrxtEalhyeeRgq-3" edge="1">
          <mxGeometry relative="1" as="geometry" />
        </mxCell>
        <mxCell id="lgsPyOXCFTLLYFmnP0r0-16" value="crm_cust_info" style="rounded=1;whiteSpace=wrap;html=1;fillColor=#fad7ac;strokeColor=#b46504;" parent="1" vertex="1">
          <mxGeometry x="460" y="273" width="120" height="32" as="geometry" />
        </mxCell>
        <mxCell id="lgsPyOXCFTLLYFmnP0r0-17" value="crm_prd_info" style="rounded=1;whiteSpace=wrap;html=1;fillColor=#fad7ac;strokeColor=#b46504;" parent="1" vertex="1">
          <mxGeometry x="460" y="216" width="120" height="30" as="geometry" />
        </mxCell>
        <mxCell id="GjvaQLcrxtEalhyeeRgq-19" style="edgeStyle=orthogonalEdgeStyle;rounded=0;orthogonalLoop=1;jettySize=auto;html=1;exitX=1;exitY=0.5;exitDx=0;exitDy=0;entryX=0;entryY=0.5;entryDx=0;entryDy=0;" parent="1" source="lgsPyOXCFTLLYFmnP0r0-18" target="GjvaQLcrxtEalhyeeRgq-5" edge="1">
          <mxGeometry relative="1" as="geometry" />
        </mxCell>
        <mxCell id="lgsPyOXCFTLLYFmnP0r0-18" value="crm_sales-details" style="rounded=1;whiteSpace=wrap;html=1;fillColor=#fad7ac;strokeColor=#b46504;" parent="1" vertex="1">
          <mxGeometry x="460" y="150" width="120" height="30" as="geometry" />
        </mxCell>
        <mxCell id="GjvaQLcrxtEalhyeeRgq-23" style="edgeStyle=orthogonalEdgeStyle;rounded=0;orthogonalLoop=1;jettySize=auto;html=1;exitX=1;exitY=0.5;exitDx=0;exitDy=0;entryX=0;entryY=0.5;entryDx=0;entryDy=0;" parent="1" source="lgsPyOXCFTLLYFmnP0r0-19" target="GjvaQLcrxtEalhyeeRgq-6" edge="1">
          <mxGeometry relative="1" as="geometry" />
        </mxCell>
        <mxCell id="lgsPyOXCFTLLYFmnP0r0-19" value="erp_cust_az12" style="rounded=1;whiteSpace=wrap;html=1;fillColor=#fad7ac;strokeColor=#b46504;" parent="1" vertex="1">
          <mxGeometry x="460" y="330" width="120" height="30" as="geometry" />
        </mxCell>
        <mxCell id="GjvaQLcrxtEalhyeeRgq-24" style="edgeStyle=orthogonalEdgeStyle;rounded=0;orthogonalLoop=1;jettySize=auto;html=1;exitX=1;exitY=0.5;exitDx=0;exitDy=0;entryX=0;entryY=0.5;entryDx=0;entryDy=0;" parent="1" source="lgsPyOXCFTLLYFmnP0r0-20" target="GjvaQLcrxtEalhyeeRgq-7" edge="1">
          <mxGeometry relative="1" as="geometry" />
        </mxCell>
        <mxCell id="lgsPyOXCFTLLYFmnP0r0-20" value="erp_loc_a101" style="rounded=1;whiteSpace=wrap;html=1;fillColor=#fad7ac;strokeColor=#b46504;" parent="1" vertex="1">
          <mxGeometry x="460" y="390" width="120" height="30" as="geometry" />
        </mxCell>
        <mxCell id="lgsPyOXCFTLLYFmnP0r0-21" style="edgeStyle=orthogonalEdgeStyle;rounded=0;orthogonalLoop=1;jettySize=auto;html=1;exitX=0.5;exitY=1;exitDx=0;exitDy=0;" parent="1" source="lgsPyOXCFTLLYFmnP0r0-19" target="lgsPyOXCFTLLYFmnP0r0-19" edge="1">
          <mxGeometry relative="1" as="geometry" />
        </mxCell>
        <mxCell id="GjvaQLcrxtEalhyeeRgq-25" style="edgeStyle=orthogonalEdgeStyle;rounded=0;orthogonalLoop=1;jettySize=auto;html=1;exitX=1;exitY=0.5;exitDx=0;exitDy=0;entryX=0;entryY=0.5;entryDx=0;entryDy=0;" parent="1" source="lgsPyOXCFTLLYFmnP0r0-22" target="GjvaQLcrxtEalhyeeRgq-9" edge="1">
          <mxGeometry relative="1" as="geometry" />
        </mxCell>
        <mxCell id="lgsPyOXCFTLLYFmnP0r0-22" value="erp_px_cat_g1v2" style="rounded=1;whiteSpace=wrap;html=1;fillColor=#fad7ac;strokeColor=#b46504;" parent="1" vertex="1">
          <mxGeometry x="460" y="450" width="120" height="30" as="geometry" />
        </mxCell>
        <mxCell id="GjvaQLcrxtEalhyeeRgq-1" value="" style="rounded=0;whiteSpace=wrap;html=1;fillStyle=hatch;" parent="1" vertex="1">
          <mxGeometry x="680" y="125" width="160" height="400" as="geometry" />
        </mxCell>
        <mxCell id="GjvaQLcrxtEalhyeeRgq-2" value="BRONZE LAYER" style="rounded=1;whiteSpace=wrap;html=1;fillColor=#fad7ac;strokeColor=#b46504;" parent="1" vertex="1">
          <mxGeometry x="440" y="70" width="160" height="40" as="geometry" />
        </mxCell>
        <mxCell id="GjvaQLcrxtEalhyeeRgq-3" value="crm_cust_info" style="rounded=1;whiteSpace=wrap;html=1;fillColor=#647687;strokeColor=#314354;fontColor=#ffffff;" parent="1" vertex="1">
          <mxGeometry x="700" y="273" width="120" height="32" as="geometry" />
        </mxCell>
        <mxCell id="GjvaQLcrxtEalhyeeRgq-5" value="crm_sales-details" style="rounded=1;whiteSpace=wrap;html=1;fillColor=#647687;fontColor=#ffffff;strokeColor=#314354;" parent="1" vertex="1">
          <mxGeometry x="707" y="150" width="120" height="30" as="geometry" />
        </mxCell>
        <mxCell id="GjvaQLcrxtEalhyeeRgq-6" value="erp_cust_az12" style="rounded=1;whiteSpace=wrap;html=1;fillColor=#647687;fontColor=#ffffff;strokeColor=#314354;" parent="1" vertex="1">
          <mxGeometry x="707" y="330" width="120" height="30" as="geometry" />
        </mxCell>
        <mxCell id="GjvaQLcrxtEalhyeeRgq-7" value="erp_loc_a101" style="rounded=1;whiteSpace=wrap;html=1;fillColor=#647687;fontColor=#ffffff;strokeColor=#314354;" parent="1" vertex="1">
          <mxGeometry x="700" y="395" width="120" height="30" as="geometry" />
        </mxCell>
        <mxCell id="GjvaQLcrxtEalhyeeRgq-8" style="edgeStyle=orthogonalEdgeStyle;rounded=0;orthogonalLoop=1;jettySize=auto;html=1;exitX=0.5;exitY=1;exitDx=0;exitDy=0;" parent="1" source="GjvaQLcrxtEalhyeeRgq-6" target="GjvaQLcrxtEalhyeeRgq-6" edge="1">
          <mxGeometry relative="1" as="geometry" />
        </mxCell>
        <mxCell id="GjvaQLcrxtEalhyeeRgq-9" value="erp_px_cat_g1v2" style="rounded=1;whiteSpace=wrap;html=1;fillColor=#647687;fontColor=#ffffff;strokeColor=#314354;" parent="1" vertex="1">
          <mxGeometry x="700" y="455" width="120" height="30" as="geometry" />
        </mxCell>
        <mxCell id="GjvaQLcrxtEalhyeeRgq-11" value="crm_prd_info" style="rounded=1;whiteSpace=wrap;html=1;fillColor=#647687;strokeColor=#314354;fontColor=#ffffff;" parent="1" vertex="1">
          <mxGeometry x="700" y="216" width="120" height="30" as="geometry" />
        </mxCell>
        <mxCell id="GjvaQLcrxtEalhyeeRgq-16" style="edgeStyle=orthogonalEdgeStyle;rounded=0;orthogonalLoop=1;jettySize=auto;html=1;exitX=1;exitY=0.5;exitDx=0;exitDy=0;entryX=0;entryY=0.5;entryDx=0;entryDy=0;" parent="1" source="lgsPyOXCFTLLYFmnP0r0-17" target="GjvaQLcrxtEalhyeeRgq-11" edge="1">
          <mxGeometry relative="1" as="geometry">
            <mxPoint x="680" y="231" as="targetPoint" />
          </mxGeometry>
        </mxCell>
        <mxCell id="obWKJQxBnImDNwwpL4k1-1" value="GOLD LAYER" style="rounded=1;whiteSpace=wrap;html=1;fillColor=#ffcd28;gradientColor=#ffa500;strokeColor=#d79b00;" parent="1" vertex="1">
          <mxGeometry x="975" y="70" width="160" height="40" as="geometry" />
        </mxCell>
        <mxCell id="obWKJQxBnImDNwwpL4k1-2" value="" style="rounded=0;whiteSpace=wrap;html=1;fillStyle=hatch;" parent="1" vertex="1">
          <mxGeometry x="950" y="120" width="220" height="360" as="geometry" />
        </mxCell>
        <mxCell id="obWKJQxBnImDNwwpL4k1-3" value="fact_sales" style="rounded=1;whiteSpace=wrap;html=1;fillColor=#ffcd28;gradientColor=#ffa500;strokeColor=#d79b00;" parent="1" vertex="1">
          <mxGeometry x="995" y="150" width="120" height="32" as="geometry" />
        </mxCell>
        <mxCell id="obWKJQxBnImDNwwpL4k1-4" value="dim_products" style="rounded=1;whiteSpace=wrap;html=1;fillColor=#ffcd28;gradientColor=#ffa500;strokeColor=#d79b00;" parent="1" vertex="1">
          <mxGeometry x="1000" y="400" width="120" height="30" as="geometry" />
        </mxCell>
        <mxCell id="obWKJQxBnImDNwwpL4k1-7" style="edgeStyle=orthogonalEdgeStyle;rounded=0;orthogonalLoop=1;jettySize=auto;html=1;exitX=0.5;exitY=1;exitDx=0;exitDy=0;" parent="1" edge="1">
          <mxGeometry relative="1" as="geometry">
            <mxPoint x="1040" y="425" as="sourcePoint" />
            <mxPoint x="1040" y="425" as="targetPoint" />
          </mxGeometry>
        </mxCell>
        <mxCell id="obWKJQxBnImDNwwpL4k1-9" value="dim_customers" style="rounded=1;whiteSpace=wrap;html=1;fillColor=#ffcd28;gradientColor=#ffa500;strokeColor=#d79b00;" parent="1" vertex="1">
          <mxGeometry x="1000" y="270" width="120" height="30" as="geometry" />
        </mxCell>
        <mxCell id="obWKJQxBnImDNwwpL4k1-11" value="" style="endArrow=classic;html=1;rounded=0;exitX=1;exitY=0.5;exitDx=0;exitDy=0;entryX=0;entryY=0.25;entryDx=0;entryDy=0;" parent="1" source="GjvaQLcrxtEalhyeeRgq-3" target="obWKJQxBnImDNwwpL4k1-9" edge="1">
          <mxGeometry width="50" height="50" relative="1" as="geometry">
            <mxPoint x="870" y="290" as="sourcePoint" />
            <mxPoint x="920" y="240" as="targetPoint" />
          </mxGeometry>
        </mxCell>
        <mxCell id="obWKJQxBnImDNwwpL4k1-12" value="" style="endArrow=classic;html=1;rounded=0;exitX=1;exitY=0.75;exitDx=0;exitDy=0;entryX=0;entryY=0.5;entryDx=0;entryDy=0;" parent="1" source="GjvaQLcrxtEalhyeeRgq-6" target="obWKJQxBnImDNwwpL4k1-9" edge="1">
          <mxGeometry width="50" height="50" relative="1" as="geometry">
            <mxPoint x="870" y="290" as="sourcePoint" />
            <mxPoint x="920" y="240" as="targetPoint" />
          </mxGeometry>
        </mxCell>
        <mxCell id="obWKJQxBnImDNwwpL4k1-13" value="" style="endArrow=classic;html=1;rounded=0;exitX=1;exitY=0.5;exitDx=0;exitDy=0;entryX=0;entryY=0.75;entryDx=0;entryDy=0;" parent="1" source="GjvaQLcrxtEalhyeeRgq-7" target="obWKJQxBnImDNwwpL4k1-9" edge="1">
          <mxGeometry width="50" height="50" relative="1" as="geometry">
            <mxPoint x="819" y="369" as="sourcePoint" />
            <mxPoint x="1000" y="330" as="targetPoint" />
          </mxGeometry>
        </mxCell>
        <mxCell id="obWKJQxBnImDNwwpL4k1-14" value="" style="endArrow=classic;html=1;rounded=0;entryX=0;entryY=0.5;entryDx=0;entryDy=0;exitX=1;exitY=0.5;exitDx=0;exitDy=0;" parent="1" source="GjvaQLcrxtEalhyeeRgq-5" target="obWKJQxBnImDNwwpL4k1-3" edge="1">
          <mxGeometry width="50" height="50" relative="1" as="geometry">
            <mxPoint x="700" y="290" as="sourcePoint" />
            <mxPoint x="750" y="240" as="targetPoint" />
          </mxGeometry>
        </mxCell>
        <mxCell id="obWKJQxBnImDNwwpL4k1-16" value="" style="endArrow=classic;html=1;rounded=0;exitX=1;exitY=0.25;exitDx=0;exitDy=0;entryX=0;entryY=0.25;entryDx=0;entryDy=0;jumpStyle=gap;" parent="1" source="GjvaQLcrxtEalhyeeRgq-11" target="obWKJQxBnImDNwwpL4k1-4" edge="1">
          <mxGeometry width="50" height="50" relative="1" as="geometry">
            <mxPoint x="760" y="290" as="sourcePoint" />
            <mxPoint x="810" y="240" as="targetPoint" />
            <Array as="points">
              <mxPoint x="880" y="280" />
            </Array>
          </mxGeometry>
        </mxCell>
        <mxCell id="obWKJQxBnImDNwwpL4k1-17" value="" style="endArrow=classic;html=1;rounded=0;exitX=1;exitY=0.5;exitDx=0;exitDy=0;entryX=0;entryY=0.5;entryDx=0;entryDy=0;" parent="1" source="GjvaQLcrxtEalhyeeRgq-9" target="obWKJQxBnImDNwwpL4k1-4" edge="1">
          <mxGeometry width="50" height="50" relative="1" as="geometry">
            <mxPoint x="780" y="296" as="sourcePoint" />
            <mxPoint x="960" y="480" as="targetPoint" />
          </mxGeometry>
        </mxCell>
        <mxCell id="WyPcA8iga-ueXBj4y1V3-1" value="&lt;font style=&quot;font-size: 22px;&quot;&gt;Data Flow&lt;/font&gt;" style="text;html=1;align=center;verticalAlign=middle;resizable=0;points=[];autosize=1;strokeColor=none;fillColor=none;" vertex="1" parent="1">
          <mxGeometry x="10" y="3" width="120" height="40" as="geometry" />
        </mxCell>
      </root>
    </mxGraphModel>
  </diagram>
</mxfile>
